[img]http://www.shotpix.com/images/69625477564660766679.jpg[/img]




IMDB Link :- [url]http://www.imdb.com/title/tt1077248[/url]



[b] Movie Name:- Johnny Gaddaar (2007)

Certificate:- A

Genres:-Crime | Drama | Thriller

Release Date:- 28 September 2007 (India)


Ratings: 7.7/10 from 3,711 users

Director:- Sriram Raghavan

Writers:-Vinay Choudary , Sriram Raghavan

Stars:_Dharmendra, Rimi Sen, Ashwini Khalsekar..... [/b]


[b]Story Line:- Police officers recount a tale of missing money which results in lies, deceit, betrayal and death.
[/b]




[b]General:-[/b]



[code]Complete name : Johnny Gaddar_Hindi_2007
Format : Matroska
Format version : Version 2
File size : 312 MiB
Duration : 2h 14mn
Overall bit rate : 324 Kbps
Writing application : Lavf53.6.0
Writing library : Lavf53.6.0[/code]



[b]Video:-[/b]


[code]ID : 1
Format : MPEG-4 Visual
Format profile : Simple@L3
Format settings, BVOP : No
Format settings, QPel : No
Format settings, GMC : No warppoints
Format settings, Matrix : Default (H.263)
Codec ID : V_MPEG4/ISO/ASP
Codec ID/Info : Advanced Simple Profile
Duration : 2h 14mn
Bit rate : 309 Kbps
Width : 480 pixels
Height : 272 pixels
Display aspect ratio : 16:9
Frame rate mode : Constant
Frame rate : 25.000 fps
Color space : YUV
Chroma subsampling : 4:2:0
Bit depth : 8 bits
Scan type : Progressive
Compression mode : Lossy
Bits/(Pixel*Frame) : 0.095
Stream size : 298 MiB (96%)
Writing library : XviD 63
Default : Yes
Forced : No[/code]



[b]Audio:-[/b]


[code]ID : 2
Format : MPEG Audio
Format version : Version 2
Format profile : Layer 3
Mode : Joint stereo
Mode extension : MS Stereo
Codec ID : A_MPEG/L3
Codec ID/Hint : MP3
Duration : 2h 14mn
Bit rate mode : Constant
Bit rate : 8 000 bps
Channel(s) : 2 channels
Sampling rate : 22.05 KHz
Compression mode : Lossy
Delay relative to video : 2ms
Stream size : 7.72 MiB (2%)
Default : Yes
Forced : No[/code]




[img]http://www.shotpix.com/images/39741266100115848635.gif[/img]




[img]http://www.shotpix.com/images/22753022384840266507.png[/img]



[img]http://www.shotpix.com/images/43651011981829828419.png[/img]



[img]http://www.shotpix.com/images/88415055645352871784.png[/img]



[img]http://www.shotpix.com/images/44132677014185971392.png[/img]



[img]http://www.shotpix.com/images/56684554886895895295.png[/img]



[img]http://www.shotpix.com/images/06579233777291415826.gif[/img]




[img]http://www.shotpix.com/images/37530658244654420663.jpg[/img]
